# xmcd
#
# Track frame offsets:
# 150
# 18093
# 34181
# 50768
# 69109
# 85239
# 101329
# 117754
# 135842
# 156394
# 174668
#
# Disc length: 2525 seconds
#
#
# Revision: 1
# Processed by: cddbd v1.5.2PL0 Copyright (c) Steve Scherf et al.
# Submitted via: FreeRIP 2.96 
#
DISCID=8109db0b
DTITLE=Zucchero - Fly
DYEAR=2006
DGENRE=Latin - Blues
TTITLE0=Bacco perbacco
TTITLE1=Un kilo
TTITLE2=Occhi
TTITLE3=Quanti anni ho
TTITLE4=Cuba libre
TTITLE5=E' Delicato
TTITLE6=L'amore È Nell'aria
TTITLE7=Pronto
TTITLE8=Let it shine
TTITLE9=E di grazia plena
TTITLE10=Flying away (Occhi - Bonus Track)
EXTD=
EXTT0=
EXTT1=
EXTT2=
EXTT3=
EXTT4=
EXTT5=
EXTT6=
EXTT7=
EXTT8=
EXTT9=
EXTT10=
PLAYORDER=
